<svg xmlns="http://www.w3.org/2000/svg" width="512" height="512" viewBox="0 0 512 512"><path d="M186 17L76 127H21c-12 0-21 10-21 22v188c0 12 9 22 21 22h55l110 110c4 4 9 6 15 6 13 0 21-11 21-22V32c0-17-22-29-36-15zm-6 385l-80-80c-4-4-9-6-15-6H43V170h42c6 0 11-2 15-6l80-80v318zM294 150c-8-9-21-10-30-2s-10 21-2 30c2 3 58 66 0 130-13 14-1 35 16 35 6 0 12-2 16-7 66-74 29-154 0-186zM361 90c-8-9-21-9-30-1s-9 21-1 30c5 5 110 125 0 248-13 14-1 36 16 36 6 0 11-3 15-8 135-151 1-303 0-305zM498 168c-22-72-64-120-66-122-8-9-21-10-30-2s-10 21-2 30c0 0 38 43 57 106 25 83 6 161-57 231-13 14-1 36 16 36 6 0 12-2 16-7 91-102 86-204 66-272z"/></svg>