<svg xmlns="http://www.w3.org/2000/svg" width="100" height="100" viewBox="0 0 100 100"><path fill="#020202" d="M64.17 77.244v-30.43l17.92-2.906C79.237 28.778 65.96 17.333 50 17.333c-18.042 0-32.667 14.625-32.667 32.667S31.958 82.667 50 82.667c1.75 0 3.466-.142 5.14-.406 1.312-2.176 3.665-3.923 6.652-4.67.79-.196 1.586-.312 2.377-.346zM56 20l-3.5 15.333h-3.5L46.502 20c3.667-1.835 9.5 0 9.5 0zM50 62.127c-6.698 0-12.128-5.43-12.128-12.128S43.302 37.872 50 37.872 62.128 43.302 62.128 50 56.698 62.128 50 62.128zm0-21.375c-5.1 0-9.247 4.147-9.247 9.247S44.9 59.247 50 59.247 59.247 55.1 59.247 50 55.1 40.753 50 40.753zm0 15.852c-3.642 0-6.605-2.963-6.605-6.605S46.36 43.395 50 43.395c3.643 0 6.604 2.963 6.604 6.605s-2.96 6.605-6.604 6.605zm4.183 31.29c.16.88.507 1.695 1.008 2.428-1.7.218-3.43.343-5.19.343C27.578 90.666 9.335 72.423 9.335 50S27.577 9.334 50 9.334c19.904 0 36.504 14.38 39.984 33.294l-3.948.64C82.866 26.257 67.918 13.335 50 13.335c-20.218 0-36.666 16.448-36.666 36.666S29.782 86.666 50 86.666c1.354 0 2.69-.08 4.006-.223.012.483.064.968.177 1.453zm39.95-43.074v35.26c0 2.92-2.177 5.248-5.572 6.106-3.727.924-7.326-.637-8.04-3.494-.715-2.863 1.726-5.932 5.453-6.865 1.684-.416 3.342-.33 4.73.158V54.743L71.64 58.227l-.087 26.426h-.004c-.018 2.502-2.274 4.96-5.52 5.762-3.683.927-7.542-.826-7.956-3.45-.708-2.83 1.706-5.868 5.397-6.792 1.662-.413 3.285-.33 4.65.148V49.04l26.013-4.22z"/></svg>