<svg xmlns="http://www.w3.org/2000/svg" width="32" height="32" viewBox="0 0 32 32"><path d="M22.307 16.44c-.682-.916-1.55-1.61-2.516-2.105-.485-.246-.995-.45-1.574-.576-.226-.05-.44-.077-.647-.09l-.062-2.734v-.213l.25-.156c.83-.53 1.618-1.078 2.395-1.736.768-.658 1.54-1.405 2.12-2.463.57-1.073.81-2.344.443-3.67-.348-1.305-1.603-2.522-3.16-2.56-.765-.03-1.532.25-2.087.7-.284.222-.516.474-.706.747-.138.205-.257.338-.41.6-.635 1.022-.93 2.055-1.072 3.093-.137 1.024-.14 2.002-.098 2.94l.02.532c-1.22.685-2.51 1.394-3.744 2.258-.807.562-1.608 1.19-2.342 1.97-.73.773-1.398 1.728-1.78 2.854-.382 1.13-.464 2.333-.235 3.484.186 1.045.605 2.13 1.216 3.068 1.227 1.926 3.273 3.16 5.347 3.637.69.15 1.392.237 2.097.253l.037 1.233c.003.042.005.09.01.132.015.104.028.3.028.448 0 .16-.005.32-.02.476-.03.308-.1.59-.198.797-.1.208-.208.313-.332.388-.066.033-.148.06-.246.08-.053.005-.103.018-.166.018l-.063.002-.128-.007-.143-.01-.07-.016c-.04-.006-.095-.018-.163-.037-.125-.03-.247-.078-.355-.135-.22-.11-.397-.262-.498-.41-.102-.152-.14-.29-.132-.463.005-.087.015-.183.06-.288.024-.104.097-.22.148-.334l.07-.158c.234-.523.014-1.143-.505-1.397-.532-.262-1.173-.043-1.435.488-.12.242-.244.47-.322.75-.09.262-.142.566-.15.87-.024.614.182 1.27.54 1.755.353.493.82.84 1.305 1.074.244.118.496.208.753.27.208.065.645.118.79.118l.147.008c.158.004.162-.003.25-.004.136-.002.282-.023.424-.044.287-.053.586-.144.87-.293.573-.303 1-.824 1.236-1.327.24-.508.342-1.005.393-1.48.024-.237.034-.473.034-.703-.004-.22-.01-.406-.037-.65l-.033-1.334c.72-.145 1.432-.377 2.12-.71.505-.25.997-.562 1.44-.967.432-.375.9-.98 1.13-1.44.493-.946.87-2.05.858-3.24.005-1.19-.422-2.383-1.105-3.292zM17.602 5.62c.115-.78.39-1.538.74-2.07.074-.14.262-.354.385-.527.074-.102.164-.186.246-.242.168-.117.32-.154.48-.14.312.024.663.305.77.774.118.456.014 1.133-.306 1.658-.485.82-1.42 1.607-2.453 2.31.01-.616.048-1.21.138-1.763zM14.35 23.216c-1.486-.377-2.792-1.22-3.536-2.432-.375-.608-.64-1.27-.763-2.037-.11-.654-.085-1.346.124-1.956.397-1.25 1.586-2.395 2.978-3.373.69-.49 1.42-.937 2.175-1.387l.062 1.893c-.694.2-1.354.506-1.973.924-.46.325-.9.73-1.247 1.253-.175.27-.316.518-.438.91-.027.087-.06.194-.076.263l-.03.17-.04.254-.013.246c-.04.662.192 1.392.59 1.94.424.548.876.92 1.516 1.22.035.02.08.035.118.05.565.187 1.176-.12 1.363-.687.19-.567-.118-1.177-.684-1.364l-.01-.002c-1.172-.39-1.1-1.7.156-2.48.257-.16.542-.3.842-.41l.01.273.207 6.953c-.452-.036-.9-.11-1.33-.223zm6.552-3.5c-.012.654-.256 1.344-.63 2.008-.21.344-.335.46-.596.69-.24.208-.54.385-.862.53-.32.144-.662.257-1.02.34l-.168-6.836-.01-.484c.03.007.062.014.088.023.318.08.667.226.994.407 1.34.737 2.28 2.026 2.204 3.32z"/></svg>