<svg xmlns="http://www.w3.org/2000/svg" width="48.186" height="48.186" viewBox="0 0 48.186 48.186"><path fill="#040606" d="M43.334 19.805c.52 3.277-1.72 6.355-4.99 6.875-3.28.518-6.357-1.717-6.877-4.996-.516-3.28 1.72-6.355 4.996-6.875 3.272-.52 6.352 1.718 6.87 4.995zm-8.096 20.58c-2.787 1.81-6.504 1.013-8.313-1.767-1.804-2.784-1.02-6.5 1.77-8.31 2.778-1.81 6.504-1.018 8.308 1.765 1.807 2.78 1.013 6.504-1.765 8.312zM20.9 24.092c0-1.764 1.43-3.186 3.19-3.186 1.766 0 3.19 1.422 3.19 3.186 0 1.766-1.425 3.188-3.19 3.188-1.76 0-3.19-1.423-3.19-3.188zm-.658 15.72c-2.465 2.214-6.262 2.02-8.484-.447-2.223-2.468-2.025-6.266.44-8.485 2.473-2.22 6.27-2.022 8.49.44 2.22 2.47 2.018 6.27-.446 8.49zM5.3 18.3c1.347-3.033 4.9-4.394 7.93-3.045 3.03 1.35 4.39 4.9 3.05 7.93-1.35 3.035-4.907 4.396-7.938 3.048-3.03-1.353-4.394-4.904-3.042-7.932zM24.092 5.02c3.32 0 6.01 2.69 6.01 6.005 0 3.32-2.688 6.01-6.01 6.01-3.316 0-6.005-2.69-6.005-6.01 0-3.316 2.69-6.006 6.005-6.006zm0-4.533C11.057.487.488 11.055.488 24.095c0 13.034 10.57 23.603 23.604 23.603 13.035 0 23.606-10.568 23.606-23.603 0-13.04-10.57-23.608-23.606-23.608"/></svg>