<svg xmlns="http://www.w3.org/2000/svg" width="64" height="64" viewBox="0 0 64 64"><path d="M49.68 16.854c1.026-.933 2.414-1.157 3.45-.622l.198-.198c.625-1.532 1.753-3.227 3.317-4.79 1.564-1.564 3.26-2.692 4.79-3.317l.675-.675s.147-1.202-.504-1.853l-3.83-3.832c-.652-.65-1.478-.88-1.846-.512l-.667.667c-.623 1.537-1.755 3.24-3.327 4.813-1.57 1.57-3.275 2.703-4.813 3.327l-.137.137c.66 1.05.455 2.545-.532 3.63l-10.29 10.228c-.445-.03-1.16-.388-2.12-1.872-1.71-2.653-5.707-4.164-8.998 1.545s-.56 6.654-9.934 7.743l.002.003c-3.31.182-6.445 1.447-8.837 3.84C.603 40.788 1.25 50.635 7.72 57.107c6.473 6.472 16.32 7.118 21.994 1.444.102-.102.198-.21.296-.314l.002.004.1-.11c.454-.497.862-1.023 1.226-1.573 1.46-2.073 3.544-5.8 3.077-9.692-.705-5.876 4.802-5.607 7.085-7.085s3.09-2.753 3.156-4.23c0 0-2.72 1.913-5.205-.572-1.996-1.996-1.108-5.4-.247-7.2L49.68 16.854z"/></svg>