<svg xmlns="http://www.w3.org/2000/svg" width="90.07" height="107.709" viewBox="0 0 90.07 107.709"><path d="M66.737 0C53.67 0 43.404 10.267 43.404 23.333c0 .46.016.915.04 1.367-7.4 10.61-23.16 32.608-34.574 44.365l12.6 12.6C32.543 69.9 54.636 54.04 65.325 46.622c.467.027.937.044 1.41.044 13.068 0 23.336-10.266 23.336-23.333C90.07 10.267 79.804 0 66.738 0zm-16.8 47.132l-6.533 6.533c-1.867 1.867-4.667 1.867-6.534 0l-.466-.465c-1.867-1.867-1.867-4.667 0-6.534l6.533-6.533c1.866-1.867 4.667-1.867 6.533 0l.468.467c1.865 1.866 1.865 4.667 0 6.532zm23.855-8.824l-22.03-22.03C54.35 10.75 60.125 7 66.738 7 76.07 7 83.07 14.467 83.07 23.333c0 6.612-3.75 12.388-9.278 14.975zm3.113 40.347c1.253 4.674-.284 9.475-4.327 13.518l-13.533 13.533-1.414-1.414L71.165 90.76c3.517-3.517 4.87-7.632 3.81-11.587-1.05-3.912-4.356-7.145-8.43-8.236-4.167-1.117-8.323.127-11.7 3.504L30.58 98.71c-6.424 6.424-12.61 9-17.73 9.002-3.767 0-6.957-1.396-9.24-3.682-4.487-4.486-5.56-12.95 1.29-19.8l4.2-4.202 1.413 1.414-4.198 4.2C3.592 88.36 2.1 91.537 2 94.826c-.092 2.982.98 5.75 3.02 7.79 2.424 2.423 5.87 3.472 9.717 2.964 4.636-.62 9.625-3.483 14.427-8.286L53.43 73.026c3.847-3.846 8.818-5.314 13.63-4.02 4.75 1.27 8.614 5.06 9.845 9.65z"/></svg>